<svg width="1594.562500" height="1470.000000" viewBox="0 0 1594.56 1470" fill="none" xmlns="http://www.w3.org/2000/svg" xmlns:xlink="http://www.w3.org/1999/xlink">
	<desc>
			Created with Pixso.
	</desc>
	<defs/>
	<rect id="Rectangle 111002149" rx="47.000000" width="1440.000000" height="1470.000000" fill="#202027" fill-opacity="1.000000"/>
	<path id="Star 11" d="M50.27 832.47L38.48 835.59L49.47 840.89L52.59 852.68L57.89 841.7L69.68 838.57L58.7 833.27L55.57 821.48L50.27 832.47ZM55.29 824.35L50.97 833.32L41.35 835.87L50.31 840.19L52.87 849.81L57.19 840.85L66.81 838.3L57.85 833.97L55.29 824.35Z" fill="#BCEC30" fill-opacity="1.000000" fill-rule="evenodd"/>
	<path id="Star 12" d="M75.12 893.72L54.59 899.17L73.72 908.4L79.17 928.94L88.4 909.8L108.94 904.35L89.8 895.12L84.35 874.59L75.12 893.72ZM84.08 877.46L75.82 894.57L57.46 899.44L74.57 907.7L79.44 926.07L87.7 908.95L106.07 904.08L88.95 895.82L84.08 877.46Z" fill="#BCEC30" fill-opacity="1.000000" fill-rule="evenodd"/>
	<path id="Star 1" d="M1209.81 357.58L1021.31 297.71L1158.74 439.93L994.4 549.98L1191.29 531.21L1174.87 728.3L1282.93 562.67L1426.79 698.39L1364.69 510.63L1560.49 482.78L1374.96 414.27L1475.28 243.82L1306.04 346.16L1235.31 161.46L1209.81 357.58ZM1235.8 165.51L1210.64 358.89L1024.78 299.86L1160.29 440.1L998.25 548.61L1192.38 530.1L1176.18 724.44L1282.76 561.12L1424.6 694.95L1363.36 509.8L1556.43 482.35L1373.5 414.79L1472.41 246.73L1305.53 347.63L1235.8 165.51Z" fill="#BCEC30" fill-opacity="1.000000" fill-rule="evenodd"/>
</svg>
